<svg xmlns="http://www.w3.org/2000/svg" xmlns:xlink="http://www.w3.org/1999/xlink" fill="none" version="1.1" width="16" height="20.024032592773438" viewBox="0 0 16 20.024032592773438"><g><path d="M8.94084,20.024L2.91015,20.024Q1.70693,20.024,0.855056,19.1805Q0,18.3339,0,17.135L0,2.87745Q0.00660175,1.67898,0.860696,0.837908Q1.71159,-0.0000176486,2.91016,0L13.1017,0Q14.2999,0,15.1484,0.840098Q16,1.68336,16,2.87745L16,11.2329Q16,11.5524,15.7741,11.7783Q15.5482,12.0042,15.2288,12.0042Q14.9093,12.0042,14.6834,11.7783Q14.4576,11.5524,14.4576,11.2329L14.4576,2.87745Q14.4576,2.32673,14.0631,1.93615Q13.6655,1.54245,13.1017,1.54245L2.91014,1.54245Q2.34356,1.54244,1.94296,1.93693Q1.54549,2.32834,1.54244,2.87867L1.54245,17.135Q1.54245,17.6905,1.94033,18.0845Q2.34137,18.4816,2.91015,18.4816L8.94084,18.4816Q9.26029,18.4816,9.48618,18.7075Q9.71207,18.9334,9.71207,19.2528Q9.71207,19.5723,9.48618,19.7981Q9.26029,20.024,8.94084,20.024ZM4.17276,4.55332L11.8281,4.55332Q12.1476,4.55332,12.3735,4.7792Q12.5994,5.00509,12.5994,5.32454Q12.5994,5.64399,12.3735,5.86988Q12.1476,6.09576,11.8281,6.09576L4.17276,6.09576Q3.85331,6.09576,3.62742,5.86988Q3.40154,5.64399,3.40154,5.32454Q3.40154,5.00509,3.62742,4.7792Q3.85331,4.55332,4.17276,4.55332ZM4.17276,8.14691L8.78936,8.14691Q9.10882,8.14691,9.3347,8.37279Q9.56059,8.59868,9.56059,8.91813Q9.56059,9.23758,9.3347,9.46347Q9.10882,9.68936,8.78936,9.68936L4.17276,9.68936Q3.85331,9.68936,3.62742,9.46347Q3.40154,9.23758,3.40154,8.91813Q3.40154,8.59868,3.62742,8.37279Q3.85331,8.14691,4.17276,8.14691ZM13.9537,12.3476Q15.0655,13.4484,15.0655,15.0069Q15.0655,16.1624,14.4522,17.0687L15.7696,18.3651Q15.9999,18.5917,15.9999,18.9148Q15.9999,19.2342,15.774,19.4601Q15.5481,19.686,15.2287,19.686Q14.9128,19.686,14.6877,19.4645L13.3571,18.1551Q12.4434,18.7638,11.2788,18.7638Q9.71259,18.7638,8.60398,17.6661Q7.49221,16.5653,7.49221,15.0069Q7.49221,13.4484,8.60398,12.3476Q9.71259,11.2499,11.2788,11.2499Q12.8451,11.2499,13.9537,12.3476ZM11.2788,17.2214Q12.1865,17.2214,12.8337,16.6038Q12.8632,16.5711,12.8962,16.5421Q13.523,15.9025,13.523,15.0069Q13.523,14.0918,12.8684,13.4436Q12.2106,12.7923,11.2788,12.7923Q10.347,12.7923,9.68926,13.4436Q9.03466,14.0918,9.03466,15.0069Q9.03466,15.9219,9.68926,16.5701Q10.347,17.2214,11.2788,17.2214Z" fill-rule="evenodd" fill="#3A3A3A" fill-opacity="1"/></g></svg>