<svg xmlns="http://www.w3.org/2000/svg" xmlns:xlink="http://www.w3.org/1999/xlink" fill="none" version="1.1" width="20" height="24" viewBox="0 0 20 24"><g><path d="M2.6506,0.625C2.6506,0.279822,2.92031,0,3.25301,0C3.58571,0,3.85542,0.279822,3.85542,0.625L3.85542,6.625C3.85542,6.97018,3.58571,7.25,3.25301,7.25C2.92031,7.25,2.6506,6.97018,2.6506,6.625L2.6506,0.625ZM5.06024,0.875C5.06024,0.529822,5.32995,0.25,5.66265,0.25C5.99535,0.25,6.26506,0.529822,6.26506,0.875L6.26506,4.125C6.26506,4.47018,5.99535,4.75,5.66265,4.75C5.32995,4.75,5.06024,4.47018,5.06024,4.125L5.06024,0.875ZM0,2.125C0,1.77982,0.269708,1.5,0.60241,1.5C0.935112,1.5,1.20482,1.77982,1.20482,2.125L1.20482,4.625C1.20482,4.97018,0.935112,5.25,0.60241,5.25C0.269708,5.25,0,4.97018,0,4.625L0,2.125ZM7.71084,2.625C7.71084,2.27982,7.98055,2,8.31325,2C8.64595,2,8.91566,2.27982,8.91566,2.625L8.91566,4.375C8.91566,4.72018,8.64595,5,8.31325,5C7.98055,5,7.71084,4.72018,7.71084,4.375L7.71084,2.625ZM16.506,4L10.7601,4C10.4274,4,10.1577,4.27982,10.1577,4.625C10.1577,4.97018,10.4274,5.25,10.7601,5.25L16.506,5.25Q17.4542,5.25,18.1247,5.94562Q18.7952,6.64124,18.7952,7.625L18.7952,20.375Q18.7952,21.3588,18.1247,22.0544Q17.4542,22.75,16.506,22.75L6.62651,22.75Q5.67831,22.75,5.00783,22.0544Q4.33735,21.3588,4.33735,20.375L4.33735,10.1277C4.33735,9.78254,4.06764,9.50272,3.73494,9.50272C3.40224,9.50272,3.13253,9.78254,3.13253,10.1277L3.13253,20.375Q3.13253,21.8765,4.15589,22.9383Q5.17925,24,6.62651,24L16.506,24Q17.9533,24,18.9766,22.9383Q20,21.8765,20,20.375L20,7.625Q20,6.12348,18.9766,5.06174Q17.9533,4,16.506,4ZM9.11658,10.1453C9.24789,10.1455,9.36882,10.0912,9.45879,10.003C9.54626,9.94124,9.61613,9.85204,9.65296,9.74369C9.67895,9.66727,9.68628,9.5866,9.67433,9.50857L9.6742,9.50772Q9.39848,7.70862,8.47611,6.76777Q7.52453,5.79714,5.94543,5.7744C5.72514,5.77124,5.52249,5.91612,5.45033,6.12836C5.36179,6.38878,5.49753,6.66123,5.7535,6.7369C5.79504,6.74918,5.83832,6.75573,5.88221,6.75636L5.88277,6.75636Q7.07337,6.77363,7.7594,7.4734Q8.2831,8.00759,8.54667,8.95592L7.70464,8.71645C7.66406,8.70491,7.62199,8.69903,7.57954,8.69897C7.31337,8.69857,7.08987,8.92196,7.08033,9.19792C7.07253,9.42369,7.2117,9.62163,7.41988,9.68084L8.99147,10.1278C9.03206,10.1393,9.07412,10.1452,9.11658,10.1453ZM10.6134,17.0431L13.2325,17.0431L13.6106,18.205C13.6436,18.3066,13.7355,18.375,13.8389,18.375L14.7204,18.375C14.8865,18.375,15.0027,18.2049,14.9478,18.0423L12.752,11.5423C12.7182,11.4421,12.627,11.375,12.5246,11.375L11.3307,11.375C11.2284,11.375,11.1372,11.4421,11.1033,11.5423L8.90754,18.0423C8.85262,18.2049,8.96891,18.375,9.13494,18.375L10.0071,18.375C10.1105,18.375,10.2023,18.3066,10.2354,18.205L10.6134,17.0431ZM11.923,12.9973L12.8745,15.9215L10.9714,15.9215L11.923,12.9973Z" fill-rule="evenodd" fill="#3A3A3A" fill-opacity="1"/></g></svg>